<?xml version="1.0" encoding="UTF-8" standalone="no"?>
<!-- Generator: Adobe Illustrator 25.0.0, SVG Export Plug-In . SVG Version: 6.00 Build 0)  -->

<svg
   version="1.1"
   id="Layer_1"
   x="0px"
   y="0px"
   viewBox="0 0 1074.83 860.36005"
   xml:space="preserve"
   sodipodi:docname="inet-logo.svg"
   inkscape:version="1.3.2 (091e20ef0f, 2023-11-25)"
   width="1074.83"
   height="860.36005"
   xmlns:inkscape="http://www.inkscape.org/namespaces/inkscape"
   xmlns:sodipodi="http://sodipodi.sourceforge.net/DTD/sodipodi-0.dtd"
   xmlns="http://www.w3.org/2000/svg"
   xmlns:svg="http://www.w3.org/2000/svg"><defs
   id="defs61" /><sodipodi:namedview
   id="namedview61"
   pagecolor="#ffffff"
   bordercolor="#000000"
   borderopacity="0.25"
   inkscape:showpageshadow="2"
   inkscape:pageopacity="0.0"
   inkscape:pagecheckerboard="true"
   inkscape:deskcolor="#d1d1d1"
   inkscape:zoom="0.56992807"
   inkscape:cx="238.6266"
   inkscape:cy="633.41327"
   inkscape:window-width="1920"
   inkscape:window-height="1052"
   inkscape:window-x="1080"
   inkscape:window-y="840"
   inkscape:window-maximized="1"
   inkscape:current-layer="Layer_1"
   showborder="true" />
<style
   type="text/css"
   id="style1">
	.st0{fill:#F2F2F2;}
	.st1{fill:#B3B3B3;}
	.st2{fill:#C40C0C;}
</style>

<g
   id="g61"
   transform="translate(-462.58999,-569.81999)">
	<path
   class="st1"
   d="m 1265.24,1410.23 -177.87,-128.89 -135.64,-93.47 -169.89,26.67 -0.17,-0.02 -203.96,-26.8 -0.27,-0.59 -89.69,-193.18 164.08,-269.88 182.45,-88.13 179.15,-44.91 0.3,0.08 136.05,36.43 136.35,40.85 0.2,0.19 141.44,131.62 0.1,0.2 76.5,160.66 22.55,138.37 -0.46,0.43 -121.46,113.27 -0.23,0.08 -150.49,54.72 z m -312.94,-224.86 0.39,0.27 136.05,93.76 173.74,125.9 -10.7,-138.97 0.85,-0.31 151.11,-54.95 120.63,-112.52 -22.29,-136.78 -76.26,-160.15 -140.9,-131.12 -135.78,-40.68 -135.72,-36.34 -178.45,44.72 -181.48,87.69 -163.05,268.2 88.88,191.44 202.49,26.61 z"
   id="path1" />
	<circle
   class="st1"
   cx="781.83002"
   cy="1212.1"
   r="14.45"
   id="circle1" />
	<circle
   class="st1"
   cx="1145.33"
   cy="628.85999"
   r="14.45"
   id="circle2" />
	<circle
   class="st1"
   cx="834.57001"
   cy="628.85999"
   r="36.619999"
   id="circle3" />
	<circle
   class="st1"
   cx="1177.91"
   cy="758.66998"
   r="36.619999"
   id="circle4" />
	<circle
   class="st1"
   cx="499.20999"
   cy="1000"
   r="36.619999"
   id="circle5" />
	<circle
   class="st1"
   cx="1386.58"
   cy="987.89001"
   r="36.619999"
   id="circle6" />
	<circle
   class="st1"
   cx="652.65997"
   cy="724.96997"
   r="65.650002"
   id="circle7" />
	<circle
   class="st1"
   cx="1282.84"
   cy="669.81"
   r="52.23"
   id="circle8" />
	<circle
   class="st1"
   cx="935.96997"
   cy="743.06"
   r="52.23"
   id="circle9" />
	<circle
   class="st1"
   cx="600.42999"
   cy="1179.83"
   r="52.23"
   id="circle10" />
	<circle
   class="st1"
   cx="1263.86"
   cy="1407.76"
   r="22.42"
   id="circle11" />
	<circle
   class="st1"
   cx="1094.92"
   cy="1282.6899"
   r="14.45"
   id="circle12" />
	<circle
   class="st1"
   cx="1357.79"
   cy="1127.6"
   r="14.45"
   id="circle13" />
	<circle
   class="st1"
   cx="1522.97"
   cy="1094.1899"
   r="14.45"
   id="circle14" />
	<circle
   class="st1"
   cx="952.02002"
   cy="1189.6801"
   r="26.780001"
   id="circle15" />
	<circle
   class="st1"
   cx="1401.12"
   cy="1216.45"
   r="36.619999"
   id="circle16" />
	<circle
   class="st1"
   cx="1253.03"
   cy="1264.6801"
   r="22.42"
   id="circle17" />
	<circle
   class="st1"
   cx="1141.28"
   cy="1162.9"
   r="22.42"
   id="circle18" />
	<circle
   class="st1"
   cx="1013.42"
   cy="592.23999"
   r="22.42"
   id="circle19" />
	<circle
   class="st1"
   cx="1426.79"
   cy="800.90002"
   r="22.42"
   id="circle20" />
	<circle
   class="st1"
   cx="1503.22"
   cy="961.40002"
   r="22.42"
   id="circle21" />
	<g
   id="g23">
		<rect
   x="663.58002"
   y="871.39001"
   class="st2"
   width="13.1"
   height="183.17"
   id="rect21" />
		<polygon
   class="st2"
   points="775.28,853.46 775.28,1038.4 788.38,1038.4 788.38,893.68 912.32,1063.75 912.32,871.39 899.22,871.39 899.22,1023.52 "
   id="polygon21" />
		<polygon
   class="st2"
   points="1110.86,880.12 1110.86,867.02 999.3,867.02 999.3,1058.92 1110.86,1058.92 1110.86,1045.82 1012.41,1045.82 1012.41,967.95 1093.77,967.95 1093.77,954.85 1012.41,954.85 1012.41,880.12 "
   id="polygon22" />
		<polygon
   class="st2"
   points="1213.16,867.02 1213.16,880.12 1276.1,880.12 1276.1,1054.55 1289.2,1054.55 1289.2,880.12 1352.14,880.12 1352.14,867.02 "
   id="polygon23"
   inkscape:label="polygon23" />
	</g>
	
		<rect
   x="580.14001"
   y="940.08002"
   transform="matrix(0.3041,-0.9526,0.9526,0.3041,-573.1023,1267.833)"
   class="st1"
   width="2.1800001"
   height="172.21001"
   id="rect23" />
	
		<rect
   x="579.73999"
   y="1112.03"
   transform="matrix(0.469,-0.8832,0.8832,0.469,-642.5956,1157.4832)"
   class="st1"
   width="123.05"
   height="2.1800001"
   id="rect24" />
	<polygon
   class="st1"
   points="775.26,869.4 681.9,1051.49 780.85,1064.21 630.02,1180.7 628.69,1178.97 775.34,1065.7 678.54,1053.25 771.68,871.58 677.91,871.58 677.91,869.4 "
   id="polygon24" />
	
		<rect
   x="663.67999"
   y="772.54999"
   transform="matrix(0.993,-0.118,0.118,0.993,-91.8979,84.1818)"
   class="st1"
   width="2.1800001"
   height="90.800003"
   id="rect25" />
	<polygon
   class="st1"
   points="507.7,987.02 658.75,872.7 660.07,874.44 509.01,988.76 "
   id="polygon25" />
	<polygon
   class="st1"
   points="785.48,1058.79 787.66,1058.79 787.66,1208.22 906.11,1056.57 949.44,1174.27 947.39,1175.03 905.42,1061.01 785.48,1214.56 "
   id="polygon26" />
	<rect
   x="786.57001"
   y="1047.6801"
   class="st1"
   width="107.9"
   height="2.1800001"
   id="rect26" />
	<polygon
   class="st1"
   points="696.08,740.05 696.21,737.87 926.93,751.4 778.76,863.91 777.44,862.17 920.9,753.23 "
   id="polygon27" />
	<polygon
   class="st1"
   points="790.1,869.4 910.09,861.99 938.64,772.54 940.72,773.2 911.72,864.08 910.98,864.13 790.24,871.58 "
   id="polygon28" />
	
		<rect
   x="953.75"
   y="854.48999"
   transform="matrix(0.7397,-0.673,0.673,0.7397,-367.8302,881.0333)"
   class="st1"
   width="2.1800001"
   height="122.91"
   id="rect28" />
	<polygon
   class="st1"
   points="961.78,768.63 963.82,767.86 1001.02,867.54 998.98,868.3 "
   id="polygon29" />
	<polygon
   class="st1"
   points="917.04,869.01 917.11,866.83 996.23,869.4 996.16,871.58 "
   id="polygon30" />
	<polygon
   class="st1"
   points="1117.4,863.53 1115.44,862.55 1161.5,771.19 1010.13,863.97 1008.99,862.11 1166.91,765.31 "
   id="polygon31" />
	
		<rect
   x="1062.76"
   y="648.77002"
   transform="matrix(0.0615,-0.9981,0.9981,0.0615,254.9805,1760.9106)"
   class="st1"
   width="2.1900001"
   height="192.2"
   id="rect31" />
	<polygon
   class="st1"
   points="828.56,629.73 829.87,627.99 943.93,713.42 942.62,715.17 "
   id="polygon32" />
	<polygon
   class="st1"
   points="944.93,701.37 1009.34,603.72 1010.28,604.56 1158.13,736.04 1140.21,636.91 1142.36,636.52 1161.41,741.88 1009.77,607.03 946.76,702.57 "
   id="polygon33" />
	<polygon
   class="st1"
   points="1180.07,743.94 1264.61,691.79 1265.75,693.65 1181.22,745.8 "
   id="polygon34" />
	<polygon
   class="st1"
   points="1113.4,876.53 1115.59,876.53 1115.59,958.76 1206.65,867.62 1179.6,782.06 1181.68,781.4 1209.13,868.22 1113.4,964.04 "
   id="polygon35" />
	
		<rect
   x="1190.97"
   y="915.5"
   transform="matrix(0.4586,-0.8887,0.8887,0.4586,-251.5371,1605.8279)"
   class="st1"
   width="2.1800001"
   height="187.67"
   id="rect35" />
	<polygon
   class="st1"
   points="1111.86,961.36 1115.55,1051.32 1275.49,1057.7 1275.41,1059.88 1113.45,1053.42 1109.68,961.44 "
   id="polygon36" />
	
		<rect
   x="911.44"
   y="1120.97"
   transform="matrix(0.3244,-0.9459,0.9459,0.3244,-400.439,1683.4352)"
   class="st1"
   width="133.75"
   height="2.1800001"
   id="rect36" />
	<polygon
   class="st1"
   points="1013.98,1059.62 1015.4,1057.96 1139.04,1163.67 962.94,1186.4 962.66,1184.24 1133.88,1162.13 "
   id="polygon37" />
	<rect
   x="913.47998"
   y="1051.28"
   class="st1"
   width="82.720001"
   height="2.1800001"
   id="rect37" />
	
		<rect
   x="1060.79"
   y="1219.9301"
   transform="matrix(0.3326,-0.9431,0.9431,0.3326,-405.6411,1868.8337)"
   class="st1"
   width="113.59"
   height="2.1800001"
   id="rect38" />
	<polygon
   class="st1"
   points="1140.67,1153.45 1282.04,1057.89 1283.26,1059.7 1141.89,1155.26 "
   id="polygon38" />
	<polygon
   class="st1"
   points="1147.25,1168.23 1148.79,1166.68 1249.03,1265.48 1104.23,1283.77 1103.95,1281.61 1244.3,1263.87 "
   id="polygon39" />
	<polygon
   class="st1"
   points="1254.61,1246.4 1356.96,1126.89 1358.61,1128.32 1251.45,1253.44 1277.47,1061.41 1279.63,1061.7 "
   id="polygon40" />
	<polygon
   class="st1"
   points="1356.85,1135.65 1358.73,1134.53 1402.06,1206.97 1400.18,1208.09 "
   id="polygon41" />
	<polygon
   class="st1"
   points="1284.6,1048.62 1378.83,982.93 1380.08,984.72 1287.96,1048.93 1357.1,1119.79 1382,987.69 1384.15,988.09 1358.47,1124.32 "
   id="polygon42" />
	<polygon
   class="st1"
   points="1390.86,994.13 1392.24,992.44 1521.2,1097.95 1364.7,1128.68 1364.29,1126.53 1516.23,1096.7 "
   id="polygon43" />
	
		<rect
   x="1395.87"
   y="972.29999"
   transform="matrix(0.9792,-0.2029,0.2029,0.9792,-167.3782,313.7918)"
   class="st1"
   width="102.34"
   height="2.1900001"
   id="rect43" />
	<polygon
   class="st1"
   points="1356.73,877.17 1358.84,876.65 1384.14,978.6 1382.02,979.13 "
   id="polygon44" />
	<polygon
   class="st1"
   points="1365.31,863.76 1363.68,862.31 1415.18,804.47 1405.46,966.37 1403.28,966.25 1412.62,810.63 "
   id="polygon45" />
	
		<rect
   x="1240.58"
   y="870.33002"
   transform="matrix(0.9268,-0.3756,0.3756,0.9268,-269.7437,536.603)"
   class="st1"
   width="2.1800001"
   height="179.89"
   id="rect45" />
	<polygon
   class="st1"
   points="1355.76,865.39 1296.5,693.07 1298.56,692.36 1359.81,870.45 1185.21,763.01 1186.35,761.15 "
   id="polygon46" />
	<g
   id="g60">
		<circle
   class="st2"
   cx="1005.67"
   cy="961.40002"
   r="17.469999"
   id="circle46" />
		<circle
   class="st2"
   cx="1108.67"
   cy="961.40002"
   r="17.469999"
   id="circle47" />
		<circle
   class="st2"
   cx="670.13"
   cy="873.57001"
   r="17.469999"
   id="circle48" />
		<circle
   class="st2"
   cx="670.13"
   cy="1052.37"
   r="17.469999"
   id="circle49" />
		<circle
   class="st2"
   cx="781.83002"
   cy="1052.37"
   r="17.469999"
   id="circle50" />
		<circle
   class="st2"
   cx="906.45001"
   cy="1052.37"
   r="17.469999"
   id="circle51" />
		<circle
   class="st2"
   cx="906.45001"
   cy="870.48999"
   r="17.469999"
   id="circle52" />
		<circle
   class="st2"
   cx="781.83002"
   cy="870.48999"
   r="17.469999"
   id="circle53" />
		<circle
   class="st2"
   cx="1005.67"
   cy="1052.37"
   r="17.469999"
   id="circle54" />
		<circle
   class="st2"
   cx="1108.67"
   cy="1052.37"
   r="17.469999"
   id="circle55" />
		<circle
   class="st2"
   cx="1282.65"
   cy="1052.37"
   r="17.469999"
   id="circle56" />
		<circle
   class="st2"
   cx="1108.67"
   cy="870.48999"
   r="17.469999"
   id="circle57" />
		<circle
   class="st2"
   cx="1005.67"
   cy="870.48999"
   r="17.469999"
   id="circle58" />
		<circle
   class="st2"
   cx="1282.65"
   cy="870.48999"
   id="circle59"
   r="17.469999"
   inkscape:label="circle59" />
		<circle
   class="st2"
   cx="1357.79"
   cy="870.48999"
   r="17.469999"
   id="circle60" />
	<circle
   class="st2"
   cx="1207.89"
   cy="870.48999"
   r="17.469999"
   id="circle61" /></g>
</g><rect
   class="st0"
   width="2000"
   height="2000"
   id="rect1"
   x="-507.77112"
   y="-545.69415"
   style="display:none" />
</svg>
